<?xml version="1.0" standalone="no"?>
<!DOCTYPE svg PUBLIC "-//W3C//DTD SVG 20010904//EN"
 "http://www.w3.org/TR/2001/REC-SVG-20010904/DTD/svg10.dtd">
<svg version="1.0" xmlns="http://www.w3.org/2000/svg"
 width="640.000000pt" height="640.000000pt" viewBox="0 0 640.000000 640.000000"
 preserveAspectRatio="xMidYMid meet">

<g transform="translate(0.000000,640.000000) scale(0.100000,-0.100000)"
fill="#000000" stroke="none">
<path d="M2438 4930 c-46 -25 -75 -61 -89 -114 -8 -30 -10 -457 -7 -1542 l4
-1501 27 -41 c15 -23 45 -51 67 -62 38 -19 57 -20 674 -20 l635 0 -38 108
c-65 179 -65 179 -130 187 -207 26 -373 133 -406 263 l-11 44 -187 -2 c-205
-1 -230 4 -281 59 -24 25 -30 41 -33 88 -5 68 16 111 69 143 31 19 51 20 414
20 380 0 381 0 415 -23 44 -29 69 -80 69 -139 0 -46 1 -48 28 -48 69 0 210
-64 251 -113 7 -10 17 -17 22 -17 5 0 9 557 9 1290 0 1401 3 1329 -53 1388
-49 53 -34 52 -637 52 -495 0 -560 -2 -560 -15 0 -18 39 -35 81 -35 16 0 29
-4 29 -10 0 -5 -13 -10 -29 -10 -16 0 -41 -4 -55 -10 -22 -8 -26 -16 -26 -47
0 -65 -17 -71 -24 -10 -7 51 -9 55 -38 61 -17 3 -41 6 -55 6 -42 0 -16 17 37
24 41 5 50 10 50 26 0 19 -7 20 -92 20 -72 -1 -101 -5 -130 -20z m1447 -247
c-2 -21 -5 -407 -6 -858 l-4 -820 -5 660 c-3 363 -6 606 -8 540 -2 -113 -3
-121 -22 -122 -11 -1 -35 -16 -53 -34 -30 -31 -32 -37 -37 -123 l-5 -91 -6 85
-5 85 -2 -82 c-1 -51 -6 -83 -13 -83 -7 0 -10 47 -9 143 1 78 1 150 1 160 -1
16 -35 17 -571 17 -536 0 -570 -1 -570 -17 0 -10 -2 -157 -4 -328 -3 -170 -5
-415 -5 -542 -1 -167 -4 -233 -12 -233 -7 0 -23 -12 -38 -28 l-25 -27 -7 30
c-4 18 -8 -20 -10 -90 l-3 -120 -6 105 c-5 79 -7 91 -9 50 -2 -30 -7 -107 -11
-170 l-7 -115 -2 180 c-1 99 -6 189 -10 200 -5 11 -9 -241 -10 -560 -1 -319
-4 -581 -7 -584 -2 -2 -4 629 -4 1402 l0 1407 744 0 743 0 -2 -37z m-185
-1098 l0 -565 -560 0 -560 0 0 565 0 565 560 0 560 0 0 -565z m87 -111 c-3 -3
-12 -4 -19 -1 -8 3 -5 6 6 6 11 1 17 -2 13 -5z m-46 -109 c27 -9 19 -16 -9 -8
-20 5 -22 11 -20 62 l2 56 3 -52 c3 -42 8 -53 24 -58z m-4 83 c-3 -8 -6 -5 -6
6 -1 11 2 17 5 13 3 -3 4 -12 1 -19z m102 -42 l-2 -31 -4 30 c-3 17 -9 34 -14
40 -5 5 -9 14 -9 20 0 5 7 1 15 -9 8 -11 14 -34 14 -50z m-71 33 c-25 -14 -22
-38 5 -49 22 -10 22 -10 -3 -7 -15 1 -26 9 -28 20 -4 20 14 47 32 47 6 0 3 -5
-6 -11z m52 -79 c-8 -5 -22 -9 -30 -9 -10 0 -8 3 5 9 27 12 43 12 25 0z
m-1246 -345 c3 -8 1 -15 -4 -15 -6 0 -10 7 -10 15 0 8 2 15 4 15 2 0 6 -7 10
-15z m46 -14 c0 -5 2 -16 5 -24 4 -8 0 -14 -10 -14 -11 0 -13 6 -9 20 4 13 2
17 -5 13 -6 -4 -11 -14 -11 -23 0 -9 -3 -14 -6 -10 -10 10 7 47 22 47 8 0 14
-4 14 -9z m45 -1 c3 -5 -3 -10 -15 -10 -12 0 -18 5 -15 10 3 6 10 10 15 10 5
0 12 -4 15 -10z m1133 -48 c26 -4 19 -22 -9 -22 -13 0 -19 -7 -20 -22 -2 -22
-2 -22 -6 -2 -2 11 -16 25 -31 31 l-27 11 28 1 c22 1 27 6 28 29 l1 27 7 -25
c4 -15 15 -26 29 -28z m-1115 21 c-7 -2 -21 -2 -30 0 -10 3 -4 5 12 5 17 0 24
-2 18 -5z m490 -83 c491 0 507 -1 507 -19 0 -10 -7 -22 -16 -25 -9 -3 -254 -6
-545 -6 -565 0 -553 -1 -535 46 5 13 15 15 44 10 20 -3 265 -6 545 -6z m247
-145 l0 -25 -289 0 c-255 0 -290 2 -295 16 -3 9 -4 20 0 25 3 5 132 9 295 9
l289 0 0 -25z"/>
<path d="M2530 4335 c0 -7 -8 -18 -17 -24 -16 -9 -15 -10 5 -8 16 1 22 8 22
24 0 13 -2 23 -5 23 -3 0 -5 -7 -5 -15z"/>
<path d="M2560 4319 c0 -11 4 -18 10 -14 5 3 7 12 3 20 -7 21 -13 19 -13 -6z"/>
<path d="M2560 4266 c0 -31 6 -34 13 -6 3 11 1 23 -4 26 -5 3 -9 -6 -9 -20z"/>
<path d="M2512 4273 c9 -2 19 -12 21 -21 3 -12 5 -10 6 6 1 17 -4 22 -21 21
-16 -1 -18 -3 -6 -6z"/>
<path d="M3731 4123 c0 -6 -4 -20 -7 -30 -5 -14 -4 -15 5 -7 7 7 11 20 8 30
-3 11 -5 14 -6 7z"/>
<path d="M2690 3930 l0 -100 30 0 30 0 0 75 0 75 75 0 c73 0 75 1 75 25 l0 25
-105 0 -105 0 0 -100z"/>
<path d="M3380 4005 c0 -24 2 -25 75 -25 l75 0 0 -75 0 -75 28 0 27 0 -3 100
-3 100 -100 0 c-99 0 -99 0 -99 -25z"/>
<path d="M2790 3830 l0 -100 100 0 100 0 0 100 0 100 -100 0 -100 0 0 -100z
m140 0 l0 -50 -45 0 -45 0 0 50 0 50 45 0 45 0 0 -50z"/>
<path d="M3020 3815 l0 -115 -115 0 -115 0 0 -25 0 -25 145 0 145 0 0 140 0
140 -30 0 -30 0 0 -115z"/>
<path d="M3110 3775 l0 -155 -160 0 -160 0 0 -25 0 -25 160 0 160 0 0 -165 0
-165 25 0 25 0 0 165 0 165 160 0 160 0 0 25 0 25 -160 0 -160 0 0 155 0 155
-25 0 -25 0 0 -155z"/>
<path d="M3198 3790 l3 -140 140 0 139 0 0 25 0 25 -115 0 -115 0 0 115 0 115
-27 0 -28 0 3 -140z"/>
<path d="M3285 3830 l0 -100 97 0 97 0 3 100 3 100 -100 0 -100 0 0 -100z
m145 0 l0 -50 -45 0 -45 0 0 50 0 50 45 0 45 0 0 -50z"/>
<path d="M2790 3495 l0 -25 115 0 115 0 0 -115 0 -115 25 0 25 0 0 140 0 140
-140 0 -140 0 0 -25z"/>
<path d="M3200 3380 l0 -140 25 0 25 0 0 115 0 115 115 0 115 0 0 25 0 25
-140 0 -140 0 0 -140z"/>
<path d="M2790 3340 l0 -100 100 0 100 0 0 100 0 100 -100 0 -100 0 0 -100z
m140 -2 l0 -48 -45 0 -45 0 0 48 0 48 45 0 45 0 0 -48z"/>
<path d="M3289 3433 c-1 -5 -2 -50 -3 -100 l-1 -93 100 0 100 0 -3 100 -3 100
-95 0 c-52 0 -95 -3 -95 -7z m141 -94 l0 -49 -45 0 -45 0 0 48 0 49 45 1 45 0
0 -49z"/>
<path d="M2690 3240 l0 -100 105 0 105 0 0 25 c0 24 -2 25 -75 25 l-75 0 0 75
0 75 -30 0 -30 0 0 -100z"/>
<path d="M3530 3265 l0 -75 -75 0 c-73 0 -75 -1 -75 -25 l0 -25 100 0 100 0 0
100 0 100 -25 0 c-24 0 -25 -2 -25 -75z"/>
<path d="M1916 4834 c-12 -32 -6 -40 29 -40 25 0 35 4 35 16 0 36 -52 55 -64
24z"/>
<path d="M4273 4664 c-36 -18 -63 -67 -63 -116 0 -40 23 -78 35 -58 4 7 2 16
-6 21 -10 6 -10 9 -2 9 7 0 18 -10 24 -22 15 -29 30 -39 49 -32 11 4 12 2 4
-6 -13 -13 -54 3 -54 21 0 6 -4 7 -10 4 -18 -11 -11 -22 24 -39 41 -19 82 -20
116 -3 34 17 70 74 70 112 0 38 -36 95 -70 112 -34 17 -78 16 -117 -3z m116
-60 c12 -15 21 -37 21 -49 0 -35 -37 -75 -70 -75 -43 0 -61 10 -75 44 -23 55
11 106 71 106 23 0 39 -8 53 -26z"/>
<path d="M1890 4445 c0 -30 73 -48 98 -23 26 26 13 38 -43 38 -42 0 -55 -4
-55 -15z"/>
<path d="M4273 4002 c-117 -70 -214 -132 -217 -139 -3 -6 1 -16 7 -21 8 -7 73
27 217 114 113 68 209 130 215 139 6 9 6 18 -1 25 -7 7 -78 -31 -221 -118z"/>
<path d="M1704 3949 c-3 -6 -2 -15 3 -20 5 -5 108 -56 228 -113 161 -76 223
-101 233 -93 7 5 11 14 10 19 -3 9 -441 218 -458 218 -5 0 -12 -5 -16 -11z"/>
<path d="M4191 3674 c-80 -14 -102 -27 -84 -45 8 -8 37 -7 110 5 100 18 120
26 109 45 -9 14 -41 13 -135 -5z"/>
<path d="M1925 3539 c-15 -23 18 -34 120 -37 92 -4 105 -2 105 12 0 22 -7 23
-122 30 -66 4 -99 3 -103 -5z"/>
<path d="M4110 3380 c0 -14 7 -20 23 -20 12 -1 112 -9 222 -19 159 -15 203
-16 213 -7 25 25 -12 33 -218 50 -253 20 -240 20 -240 -4z"/>
<path d="M1925 3236 c-161 -31 -210 -45 -210 -56 0 -25 33 -23 226 15 241 47
229 44 229 66 0 24 6 25 -245 -25z"/>
<path d="M4081 3163 c0 -13 36 -35 120 -76 116 -55 139 -61 139 -34 0 13 -220
127 -245 127 -8 0 -15 -8 -14 -17z"/>
<path d="M2088 2993 c-70 -44 -108 -74 -108 -85 0 -10 5 -18 12 -18 21 0 239
142 235 154 -8 24 -36 14 -139 -51z"/>
<path d="M1719 2481 c-35 -34 -39 -44 -39 -87 0 -84 57 -144 135 -144 60 0
124 57 132 117 12 87 -49 153 -141 153 -43 0 -53 -4 -87 -39z m146 -36 c51
-50 18 -135 -52 -135 -42 0 -83 38 -83 75 0 16 12 38 29 56 36 36 73 37 106 4z"/>
</g>
</svg>
